<svg xmlns="http://www.w3.org/2000/svg" version="1.1" xmlns:xlink="http://www.w3.org/1999/xlink" xmlns:svgjs="http://svgjs.com/svgjs" width="1440" height="560" preserveAspectRatio="none" viewBox="0 0 1440 560"><g mask="url(&quot;#SvgjsMask1106&quot;)" fill="none"><path d="M -316.16057718287595,426 C -172.16,376.2 115.84,186.8 403.83942281712405,177 C 691.84,167.2 835.84,396.6 1123.8394228171242,377 C 1411.84,357.4 1780.61,89.6 1843.8394228171242,79 C 1907.07,68.4 1520.77,275 1440,324" stroke="rgba(1, 139, 255, 1)" stroke-width="2"></path><path d="M -655.6362246409082,502 C -511.64,415.8 -223.64,84.4 64.3637753590918,71 C 352.36,57.6 496.36,419.6 784.3637753590918,435 C 1072.36,450.4 1373.24,136.6 1504.3637753590917,148 C 1635.49,159.4 1452.87,423.2 1440,492" stroke="rgba(1, 139, 255, 1)" stroke-width="2"></path><path d="M -1238.8570348994372,186 C -1094.86,207.4 -806.86,303 -518.8570348994372,293 C -230.86,283 -86.86,124.4 201.14296510056283,136 C 489.14,147.6 673.37,359.2 921.1429651005628,351 C 1168.91,342.8 1336.23,146.2 1440,95" stroke="rgba(1, 139, 255, 1)" stroke-width="2"></path><path d="M -1305.264138397656,332 C -1161.26,307.4 -873.26,189.6 -585.264138397656,209 C -297.26,228.4 -153.26,450.8 134.73586160234402,429 C 422.74,407.2 593.68,87.4 854.735861602344,100 C 1115.79,112.6 1322.95,413.6 1440,492" stroke="rgba(1, 139, 255, 1)" stroke-width="2"></path><path d="M -567.9714450591117,374 C -423.97,313.2 -135.97,47.6 152.02855494088826,70 C 440.03,92.4 584.03,471.6 872.0285549408883,486 C 1160.03,500.4 1478.43,149 1592.0285549408882,142 C 1705.62,135 1470.41,389.2 1440,451" stroke="rgba(1, 139, 255, 1)" stroke-width="2"></path><path d="M -310.74774745241103,72 C -166.75,116 121.25,252.6 409.25225254758897,292 C 697.25,331.4 841.25,260.4 1129.252252547589,269 C 1417.25,277.6 1787.1,373.4 1849.252252547589,335 C 1911.4,296.6 1521.85,128.6 1440,77" stroke="rgba(1, 139, 255, 1)" stroke-width="2"></path><path d="M -318.37922494049616,225 C -174.38,269 113.62,442.6 401.62077505950384,445 C 689.62,447.4 833.62,269.8 1121.6207750595038,237 C 1409.62,204.2 1777.94,284 1841.6207750595038,281 C 1905.3,278 1520.32,233.8 1440,222" stroke="rgba(1, 139, 255, 1)" stroke-width="2"></path><path d="M -123.87575285630317,129 C 20.12,197.6 308.12,457 596.1242471436968,472 C 884.12,487 1028.12,230.8 1316.1242471436967,204 C 1604.12,177.2 2011.35,357.2 2036.1242471436967,338 C 2060.9,318.8 1559.22,154 1440,108" stroke="rgba(1, 139, 255, 1)" stroke-width="2"></path><path d="M -299.7957941715307,467 C -155.8,427.4 132.2,262.8 420.2042058284693,269 C 708.2,275.2 852.2,511.8 1140.2042058284692,498 C 1428.2,484.2 1800.25,217 1860.2042058284692,200 C 1920.16,183 1524.04,370.4 1440,413" stroke="rgba(1, 139, 255, 1)" stroke-width="2"></path><path d="M -67.75415208364461,215 C 76.25,258.4 364.25,441.6 652.2458479163554,432 C 940.25,422.4 1084.25,187.6 1372.2458479163554,167 C 1660.25,146.4 2078.7,323.2 2092.245847916355,329 C 2105.8,334.8 1570.45,222.6 1440,196" stroke="rgba(1, 139, 255, 1)" stroke-width="2"></path></g><defs><mask id="SvgjsMask1106"><rect width="1440" height="560" fill="#ffffff"></rect></mask></defs></svg>