<?xml version="1.0" standalone="no"?>
<!DOCTYPE svg PUBLIC "-//W3C//DTD SVG 20010904//EN"
 "http://www.w3.org/TR/2001/REC-SVG-20010904/DTD/svg10.dtd">
<svg version="1.0" xmlns="http://www.w3.org/2000/svg"
 width="834.000000pt" height="313.000000pt" viewBox="0 0 834.000000 313.000000"
 preserveAspectRatio="xMidYMid meet">

<g transform="translate(0.000000,313.000000) scale(0.100000,-0.100000)"
fill="#000000" stroke="none">
<path d="M7880 2881 c-158 -56 -213 -260 -103 -382 154 -170 423 -72 423 153
0 70 -19 121 -63 166 -69 73 -164 96 -257 63z"/>
<path d="M6937 2539 c-45 -11 -90 -33 -135 -67 -44 -33 -730 -932 -761 -997
-75 -155 -7 -337 157 -417 l67 -33 417 -3 418 -3 0 -180 0 -180 143 3 142 3 3
178 2 177 105 0 105 0 0 130 0 130 -105 0 -104 0 -3 498 -3 497 -26 56 c-77
163 -250 249 -422 208z m146 -301 c16 -19 17 -57 17 -489 l0 -469 -375 0
c-362 0 -376 1 -395 20 -11 11 -20 31 -20 44 0 26 641 882 682 911 28 19 66
12 91 -17z"/>
<path d="M1445 2324 c-271 -60 -445 -225 -517 -489 -18 -70 -22 -114 -26 -342
-2 -145 -2 -263 0 -263 1 0 21 7 43 15 51 18 149 18 200 0 22 -8 41 -15 43
-15 1 0 2 93 2 208 0 114 5 236 11 272 28 179 148 311 318 350 77 18 231 8
303 -19 152 -58 237 -185 258 -384 5 -51 10 -262 10 -469 l0 -378 146 0 146 0
-4 462 c-4 462 -5 463 -31 560 -36 136 -87 228 -173 314 -77 78 -182 137 -299
169 -88 24 -339 29 -430 9z"/>
<path d="M3195 2333 c-115 -16 -258 -75 -360 -148 -354 -252 -411 -810 -117
-1154 99 -115 263 -208 431 -243 115 -24 305 -20 411 7 209 55 389 193 479
369 l32 61 -156 3 -157 3 -53 -56 c-90 -93 -205 -135 -369 -135 -157 0 -272
44 -366 139 -61 61 -115 159 -126 229 l-7 42 648 0 648 0 -6 133 c-9 232 -70
380 -217 528 -119 121 -233 180 -408 215 -68 13 -235 17 -307 7z m267 -274
c138 -29 265 -125 326 -248 56 -112 103 -101 -453 -101 -439 0 -485 2 -485 16
0 9 14 46 32 83 57 120 173 213 306 245 70 18 203 20 274 5z"/>
<path d="M4910 2325 c-139 -30 -244 -77 -341 -155 -127 -102 -205 -220 -255
-385 -24 -79 -27 -107 -27 -230 0 -123 3 -151 27 -230 91 -302 314 -495 631
-546 103 -16 288 -6 384 21 157 44 302 139 397 258 53 67 116 192 139 277 26
94 31 284 10 386 -58 290 -260 507 -545 589 -97 28 -323 36 -420 15z m302
-266 c189 -40 331 -186 373 -384 62 -293 -102 -567 -373 -624 -286 -60 -548
91 -617 354 -19 76 -19 224 0 300 45 170 176 304 346 349 65 18 199 20 271 5z"/>
<path d="M7810 1498 c0 -542 -4 -806 -11 -833 -26 -94 -98 -144 -206 -145
l-63 0 0 -132 0 -131 100 7 c298 19 439 154 470 448 5 52 10 424 10 836 l0
742 -150 0 -150 0 0 -792z"/>
<path d="M325 1611 c-73 -19 -142 -77 -169 -143 -9 -21 -16 -64 -16 -96 0
-181 187 -295 350 -212 l39 20 133 -91 133 -92 -1 -70 -1 -71 -131 -89 -131
-90 -52 23 c-42 17 -66 21 -120 18 -80 -4 -134 -36 -184 -106 -25 -37 -30 -55
-33 -116 -4 -62 0 -80 21 -123 47 -92 131 -139 236 -131 78 6 144 46 186 112
26 42 30 60 32 124 l2 74 131 90 131 90 46 -22 c163 -76 347 42 346 222 -2
178 -192 293 -349 211 l-40 -21 -134 92 -134 91 3 52 c1 28 -3 70 -10 92 -15
52 -70 116 -119 141 -43 22 -122 32 -165 21z"/>
</g>
</svg>
